# xmcd
#
# Track frame offsets: 
#        150
#        39053
#        67183
#        86793
#        102230
#        122100
#        152116
#        170383
#        193512
#        211716
#        231426
#        261602
#        297945
#        321739
#
# Disc length: 4567 seconds
#
# Revision: 0
# Processed by: cddbd v1.5.2PL0 Copyright (c) Steve Scherf et al.
# Submitted via: ExactAudioCopy v0.95b1
#
DISCID=d311d50e
DTITLE=Various Artist - Blues Collection Vol.31
DYEAR=2004
DGENRE=Blues
TTITLE0=Julian Sas- I'm Still Crying
TTITLE1=Clarence «Guitar» Sims- King Boy
TTITLE2=Walter Trout -Sweet As A Flower
TTITLE3=The Big Town Playboys\\ Lisa Mills, Jools Holland- MerryWay
TTITLE4=Eric Clapton- I'm Ready
TTITLE5=Terry Frank- Beyond The Rainbow
TTITLE6=Sky High- Restless Love
TTITLE7=Paul deLay- I Missed You Bad
TTITLE8=Jimmy D.Lane- Stuck In The Middle
TTITLE9=Big George Jackson- Hard Hearted Woman
TTITLE10=Philip Sayce- Backwater Blues
TTITLE11=Miguel M.&The Bracbay's Blues Band- I've Got A Problem, Baby
TTITLE12=The Delta Jukes -Play The Games
TTITLE13=Kevin Mark -Searching For My Baby
EXTD=
EXTT0=
EXTT1=
EXTT2=
EXTT3=
EXTT4=
EXTT5=
EXTT6=
EXTT7=
EXTT8=
EXTT9=
EXTT10=
EXTT11=
EXTT12=
EXTT13=
PLAYORDER=
